#!OML:ASF X:\für Bonn\!DataBase\2005_08_12_Daniel\c3d\Daniel.ASF
:FULLY-SPECIFIED
:DEGREES
62
root 1.516 17.1788 -16.2948 351.53 8.39038 -1.24237
lowerback 36.3009 2.05262 -2.63719
upperback 13.3873 1.56493 -3.63837
thorax -3.35596 0.882652 -2.95964
lowerneck 6.33626 2.16386 -2.15755
upperneck 17.8228 3.15984 -1.66782
head 4.83079 1.35517 -0.124466
rclavicle -5.56597e-015 1.27222e-014
rhumerus 2.00087 3.84565 -96.6536
rradius 16.9887
rwrist 18.677
rhand -15.8366 16.4157
rfingers 7.12502
rthumb 10.3578 -13.3092
lclavicle -5.56597e-015 1.27222e-014
lhumerus -18.8358 0.769692 83.676
lradius 67.8962
lwrist 2.54195
lhand -13.5557 -8.14075
lfingers 7.12502
lthumb 12.5575 21.4619
rfemur -19.8735 -18.079 17.2702
rtibia 45.8858
rfoot -12.6853 -360.882
rtoes -9.73975
lfemur -22.5053 4.7868 -20.159
ltibia 47.9742
lfoot -12.6999 -15.5337
ltoes -3.58081
63
root 1.48703 17.1661 -16.2712 351.64 8.85202 -1.31162
lowerback 36.9707 2.05477 -2.50337
upperback 13.3533 1.59464 -3.57083
thorax -3.47353 0.907819 -3.00172
lowerneck 6.47491 2.02273 -2.32256
upperneck 17.6223 2.93495 -1.4658
head 4.72138 1.24971 -0.0341695
rclavicle -3.65764e-014 1.59028e-014
rhumerus 2.35699 3.51362 -96.553
rradius 16.9
rwrist 18.7802
rhand -16.0282 16.4134
rfingers 7.12502
rthumb 10.1729 -13.3206
lclavicle -3.65764e-014 1.59028e-014
lhumerus -18.5923 0.407931 83.8955
lradius 69.106
lwrist 2.7781
lhand -13.711 -8.39679
lfingers 7.12502
lthumb 12.4078 21.215
rfemur -20.0719 -18.1558 17.4303
rtibia 45.6582
rfoot -13.0738 -361.445
rtoes -9.49238
lfemur -22.9174 4.84757 -20.0693
ltibia 48.4208
lfoot -12.7583 -15.8616
ltoes -3.4156
64
root 1.45663 17.1492 -16.2485 351.726 9.31267 -1.37942
lowerback 37.5325 2.04546 -2.3455
upperback 13.4615 1.63005 -3.52319
thorax -3.53783 0.935223 -3.05744
lowerneck 6.54385 1.88407 -2.46786
upperneck 17.4156 2.71374 -1.24502
head 4.62439 1.14729 0.0599743
rclavicle -4.21423e-014 8.82604e-014
rhumerus 2.81045 3.23194 -96.4464
rradius 16.7901
rwrist 18.8232
rhand -16.2035 16.4399
rfingers 7.12502
rthumb 10.0039 -13.3024
lclavicle -4.21423e-014 8.82604e-014
lhumerus -18.3073 0.0210403 84.0825
lradius 70.2556
lwrist 3.01011
lhand -13.9367 -8.76959
lfingers 7.12502
lthumb 12.1902 20.8552
rfemur -20.2552 -18.289 17.5765
rtibia 45.605
rfoot -13.598 -361.919
rtoes -9.39887
lfemur -23.3259 4.87657 -19.9755
ltibia 48.9081
lfoot -12.8563 -16.1337
ltoes -3.23265
65
root 1.42635 17.1285 -16.2262 351.81 9.76442 -1.45142
lowerback 38.1154 2.02551 -2.17453
upperback 13.5429 1.65657 -3.4769
thorax -3.63525 0.958579 -3.11924
lowerneck 6.70093 1.76482 -2.63588
upperneck 17.1726 2.51178 -1.00526
head 4.49827 1.05424 0.163482
rclavicle -1.27222e-014 3.81667e-014
rhumerus 3.21747 2.76781 -96.3921
rradius 16.6742
rwrist 19.0302
rhand -16.3821 16.4615
rfingers 7.12502
rthumb 9.83153 -13.289
lclavicle -1.27222e-014 3.81667e-014
lhumerus -18.0394 -0.29248 84.2737
lradius 71.2876
lwrist 3.1638
lhand -14.0759 -9.24791
lfingers 7.12502
lthumb 12.0559 20.3848
rfemur -20.4441 -18.4939 17.7524
rtibia 45.7136
rfoot -14.2046 -362.378
rtoes -9.55732
lfemur -23.7652 4.89156 -19.8771
ltibia 49.4475
lfoot -12.9925 -16.3434
ltoes -3.11834
66
root 1.39603 17.1043 -16.2046 351.907 10.2112 -1.5038
lowerback 38.6753 2.00365 -1.97845
upperback 13.6509 1.6932 -3.45239
thorax -3.69153 0.98928 -3.21943
lowerneck 6.80429 1.61428 -2.74589
upperneck 16.9658 2.27906 -0.807201
head 4.39917 0.947128 0.243238
rclavicle -1.35174e-014 3.49861e-014
rhumerus 3.69702 2.4782 -96.2941
rradius 16.5542
rwrist 19.0506
rhand -16.6067 16.4377
rfingers 7.12502
rthumb 9.61484 -13.3228
lclavicle -1.35174e-014 3.49861e-014
lhumerus -17.7743 -0.649249 84.4276
lradius 72.2946
lwrist 3.27187
lhand -14.1982 -9.70867
lfingers 7.12502
lthumb 11.938 19.9309
rfemur -20.6595 -18.7432 17.9236
rtibia 45.9699
rfoot -14.8926 -362.818
rtoes -9.85709
lfemur -24.252 4.9006 -19.8154
ltibia 50.0387
lfoot -13.2168 -16.4789
ltoes -3.05928
67
root 1.36456 17.0752 -16.1821 352.004 10.6446 -1.57284
lowerback 39.224 1.9783 -1.75522
upperback 13.7491 1.73783 -3.42547
thorax -3.75111 1.02463 -3.33382
lowerneck 7.02092 1.47998 -2.92387
upperneck 16.6836 2.0506 -0.526259
head 4.25118 0.842275 0.360995
rclavicle -5.56597e-015 4.21423e-014
rhumerus 4.1531 2.056 -96.2151
rradius 16.4297
rwrist 19.191
rhand -16.7914 16.4238
rfingers 7.12502
rthumb 9.43659 -13.3449
lclavicle -5.56597e-015 4.21423e-014
lhumerus -17.5369 -1.02642 84.5816
lradius 73.2174
lwrist 3.36066
lhand -14.3243 -10.0993
lfingers 7.12502
lthumb 11.8164 19.5473
rfemur -20.8772 -19.026 18.1095
rtibia 46.3401
rfoot -15.6623 -363.143
rtoes -10.1239
lfemur -24.7657 4.93916 -19.7267
ltibia 50.6797
lfoot -13.4738 -16.6002
ltoes -3.02717
68
root 1.33422 17.0425 -16.1621 352.108 11.0893 -1.64336
lowerback 39.799 1.93111 -1.51351
upperback 13.8229 1.76367 -3.39552
thorax -3.84302 1.05118 -3.44881
lowerneck 7.28434 1.34795 -3.11061
upperneck 16.4174 1.82732 -0.268424
head 4.10341 0.738045 0.472251
rclavicle 2.38542e-015 -2.3059e-014
rhumerus 4.61296 1.56 -96.1483
rradius 16.2736
rwrist 19.4785
rhand -16.9928 16.397
rfingers 7.12502
rthumb 9.24224 -13.3804
lclavicle 2.38542e-015 -2.3059e-014
lhumerus -17.3785 -1.30891 84.7419
lradius 74.1133
lwrist 3.35592
lhand -14.2736 -10.3629
lfingers 7.12502
lthumb 11.8653 19.2809
rfemur -21.1211 -19.2973 18.2793
rtibia 46.7985
rfoot -16.4522 -363.445
rtoes -10.0617
lfemur -25.321 4.93623 -19.6599
ltibia 51.3662
lfoot -13.7969 -16.6465
ltoes -3.04759
69
root 1.30335 17.0064 -16.1434 352.216 11.4984 -1.69531
lowerback 40.3614 1.8915 -1.25174
upperback 13.9147 1.80928 -3.38129
thorax -3.90594 1.08918 -3.59711
lowerneck 7.5757 1.20728 -3.29216
upperneck 16.1136 1.59121 -0.00549438
head 3.93961 0.628077 0.583785
rclavicle -3.73715e-014 1.74931e-014
rhumerus 5.0968 1.15012 -96.0485
rradius 16.1569
rwrist 19.6516
rhand -17.203 16.3394
rfingers 7.12502
rthumb 9.03948 -13.4469
lclavicle -3.73715e-014 1.74931e-014
lhumerus -17.2165 -1.64668 84.8726
lradius 74.9621
lwrist 3.36856
lhand -14.17 -10.4834
lfingers 7.12502
lthumb 11.9651 19.1546
rfemur -21.3939 -19.5575 18.4394
rtibia 47.3169
rfoot -17.2593 -363.728
rtoes -10.0739
lfemur -25.91 4.93437 -19.6092
ltibia 52.097
lfoot -14.1719 -16.6479
ltoes -3.04737
70
root 1.27297 16.9643 -16.127 352.312 11.9155 -1.74677
lowerback 40.9705 1.82548 -0.950838
upperback 14.0016 1.83819 -3.38669
thorax -3.98436 1.12175 -3.78139
lowerneck 7.85695 1.07279 -3.50083
upperneck 15.8101 1.35769 0.307725
head 3.78033 0.518741 0.717066
rclavicle 2.22639e-014 -3.18055e-014
rhumerus 5.59296 0.854194 -95.9299
rradius 16.0726
rwrist 19.6521
rhand -17.3434 16.1705
rfingers 7.12502
rthumb 8.90402 -13.6216
lclavicle 2.22639e-014 -3.18055e-014
lhumerus -17.0754 -1.97306 84.9628
lradius 75.7521
lwrist 3.41239
lhand -14.0223 -10.4732
lfingers 7.12502
lthumb 12.1076 19.1565
rfemur -21.7044 -19.8515 18.5992
rtibia 47.8938
rfoot -18.0145 -364.014
rtoes -10.0801
lfemur -26.5098 4.92637 -19.5762
ltibia 52.8653
lfoot -14.6154 -16.572
ltoes -3.03491
71
root 1.24183 16.9165 -16.1127 352.42 12.3223 -1.80113
lowerback 41.6166 1.75225 -0.632229
upperback 14.0676 1.86743 -3.39052
thorax -4.09197 1.15466 -3.97432
lowerneck 8.04789 0.935193 -3.69663
upperneck 15.5605 1.12958 0.588514
head 3.6597 0.410385 0.838943
rclavicle -2.70347e-014 -7.95139e-015
rhumerus 6.12598 0.286391 -95.8485
rradius 15.925
rwrist 20.0262
rhand -17.5213 16.1048
rfingers 7.12502
rthumb 8.73234 -13.6946
lclavicle -2.70347e-014 -7.95139e-015
lhumerus -16.9864 -2.2976 85.0443
lradius 76.5262
lwrist 3.46859
lhand -13.802 -10.313
lfingers 7.12502
lthumb 12.32 19.304
rfemur -22.1004 -20.1535 18.7812
rtibia 48.5193
rfoot -18.7094 -364.265
rtoes -10.2309
lfemur -27.1566 4.95025 -19.5625
ltibia 53.6755
lfoot -15.1435 -16.4594
ltoes -3.17933
72
root 1.21267 16.8644 -16.1008 352.528 12.7237 -1.85262
lowerback 42.3227 1.65772 -0.275049
upperback 14.1063 1.88717 -3.40844
thorax -4.24192 1.18436 -4.20027
lowerneck 8.13452 0.783207 -3.84677
upperneck 15.3946 0.89319 0.847837
head 3.59006 0.298439 0.947733
rclavicle 1.90833e-014 -1.98785e-014
rhumerus 6.62887 -0.221643 -95.7676
rradius 15.8351
rwrist 20.2514
rhand -17.6652 15.9359
rfingers 7.12502
rthumb 8.59342 -13.8692
lclavicle 1.90833e-014 -1.98785e-014
lhumerus -16.9086 -2.58621 85.1259
lradius 77.2037
lwrist 3.4734
lhand -13.5424 -10.0753
lfingers 7.12502
lthumb 12.5703 19.5266
rfemur -22.562 -20.4922 18.9488
rtibia 49.2101
rfoot -19.3538 -364.414
rtoes -10.5261
lfemur -27.8294 4.98596 -19.5828
ltibia 54.5152
lfoot -15.7227 -16.2913
ltoes -3.607
73
root 1.18164 16.809 -16.0895 352.643 13.0952 -1.9045
lowerback 43.0465 1.5668 0.0713233
upperback 14.1391 1.91157 -3.42848
thorax -4.39755 1.21552 -4.42482
lowerneck 8.10545 0.631381 -4.03529
upperneck 15.2862 0.657755 1.13906
head 3.56332 0.184969 1.07555
rclavicle -1.59028e-015 -3.10104e-014
rhumerus 7.16516 -0.611327 -95.6452
rradius 15.7363
rwrist 20.4082
rhand -17.802 15.8136
rfingers 7.12502
rthumb 8.46144 -13.9969
lclavicle -1.59028e-015 -3.10104e-014
lhumerus -16.8285 -2.86734 85.1956
lradius 77.82
lwrist 3.5004
lhand -13.3859 -9.8116
lfingers 7.12502
lthumb 12.7212 19.7809
rfemur -23.0823 -20.7898 19.1388
rtibia 49.974
rfoot -19.963 -364.477
rtoes -10.4725
lfemur -28.5104 5.0157 -19.5974
ltibia 55.3716
lfoot -16.3368 -16.0706
ltoes -3.96029
74
root 1.1491 16.751 -16.0804 352.738 13.4709 -1.95817
lowerback 43.8134 1.47521 0.402178
upperback 14.1549 1.9355 -3.42838
thorax -4.5784 1.24418 -4.62063
lowerneck 7.99222 0.474787 -4.19712
upperneck 15.2551 0.428713 1.36855
head 3.58048 0.0735709 1.17986
rclavicle -3.26007e-014 -3.89618e-014
rhumerus 7.70016 -1.07611 -95.5292
rradius 15.6107
rwrist 20.6294
rhand -17.998 15.6624
rfingers 7.12502
rthumb 8.27231 -14.1556
lclavicle -3.26007e-014 -3.89618e-014
lhumerus -16.7875 -3.10387 85.2819
lradius 78.3861
lwrist 3.45531
lhand -13.1792 -9.52604
lfingers 7.12502
lthumb 12.9205 20.054
rfemur -23.6317 -21.138 19.3284
rtibia 50.8151
rfoot -20.5711 -364.414
rtoes -10.4327
lfemur -29.1945 5.02401 -19.6004
ltibia 56.2506
lfoot -16.9438 -15.8518
ltoes -4.28556
75
root 1.11624 16.6921 -16.072 352.838 13.8144 -1.99128
lowerback 44.5566 1.3971 0.704795
upperback 14.1792 1.9699 -3.43003
thorax -4.73697 1.27702 -4.8067
lowerneck 7.85846 0.308131 -4.2976
upperneck 15.2389 0.19673 1.53741
head 3.60737 -0.0378383 1.25356
rclavicle -8.34896e-015 3.06128e-014
rhumerus 8.26993 -1.6466 -95.4315
rradius 15.4842
rwrist 20.9302
rhand -18.1116 15.5951
rfingers 7.12502
rthumb 8.16259 -14.2272
lclavicle -8.34896e-015 3.06128e-014
lhumerus -16.7197 -3.3134 85.3699
lradius 78.8793
lwrist 3.46403
lhand -13.1396 -9.34264
lfingers 7.12502
lthumb 12.9586 20.2349
rfemur -24.2396 -21.4861 19.4923
rtibia 51.7385
rfoot -21.1751 -364.319
rtoes -10.281
lfemur -29.8871 4.95926 -19.6056
ltibia 57.1409
lfoot -17.5154 -15.6107
ltoes -4.44793
76
root 1.08312 16.6299 -16.0654 352.952 14.1595 -2.04479
lowerback 45.2435 1.29897 1.0583
upperback 14.2271 2.00626 -3.45523
thorax -4.84748 1.3148 -5.04268
lowerneck 7.67696 0.122343 -4.30607
upperneck 15.21 -0.0554273 1.7113
head 3.63911 -0.153916 1.31272
rclavicle 3.97569e-015 -3.61788e-014
rhumerus 8.8934 -2.37013 -95.4152
rradius 15.3216
rwrist 21.3611
rhand -18.2966 15.5403
rfingers 7.12502
rthumb 7.98408 -14.2889
lclavicle 3.97569e-015 -3.61788e-014
lhumerus -16.6503 -3.581 85.386
lradius 79.3645
lwrist 3.40448
lhand -13.1186 -9.19515
lfingers 7.12502
lthumb 12.9789 20.3811
rfemur -24.9185 -21.8926 19.6902
rtibia 52.7207
rfoot -21.7562 -364.18
rtoes -10.1769
lfemur -30.6338 4.85368 -19.6038
ltibia 58.0728
lfoot -18.1256 -15.318
ltoes -4.93901
